# xmcd
#
# Track frame offsets:
#	150
#	13605
#	28420
#	40825
#	54505
#	69140
#	83910
#	100057
#	116130
#	128885
#	139455
#	149332
#	159890
#	171090
#	181562
#	192747
#	207145
#	217960
#	230810
#	243875
#
# Disc length: 3471 seconds
#
# Revision: 2
# Processed by: cddbd v1.5.1PL0 Copyright (c) Steve Scherf et al.
# Submitted via: MusicWizard 7.0.2
#
DISCID=1a0d8d14
DTITLE=Various Artist - Mega Country (1/10)
DYEAR=1997
DGENRE=Country
TTITLE0=Tammy Wynette - D-I-V-O-R-C-E
TTITLE1=George Jones - He Stopped Loving Her Today
TTITLE2=Kenny Rogers - Reuben James
TTITLE3=Willie Nelson and Leon Russell - Hearbreak Hotel
TTITLE4=Loretta Lynn - Coal Miner's Daughter
TTITLE5=Ernest Tubb and Marty Robbins - Rainbow At Midnight
TTITLE6=Brenda Lee - Comin' On Strong
TTITLE7=But It's Not Bad - It's Not Love
TTITLE8=The Gatlin Brothers - All The Gold In California
TTITLE9=Patsy Cline - Lovesick Blues
TTITLE10=Boots Randolph and Danny Davis - I Fall To Pieces
TTITLE11=The Everly Brothers - All I Have To Do Is Dream
TTITLE12=Conway Twitty - It's Only Make Believe
TTITLE13=Ferlin Husky - Wings Of A Dove
TTITLE14=Stella Parton - Danger Of A Stranger
TTITLE15=Frankie Laine - Mule Train
TTITLE16=Hank Locklin - Please Help Me I'm Fallin'
TTITLE17=Hank Thompson - Wild Side Of Life
TTITLE18=Nancy Peppers - Only In My Dreams
TTITLE19=Cal Smith - Country Bumpkin
EXTD=
EXTT0=
EXTT1=
EXTT2=
EXTT3=
EXTT4=
EXTT5=
EXTT6=
EXTT7=
EXTT8=
EXTT9=
EXTT10=
EXTT11=
EXTT12=
EXTT13=
EXTT14=
EXTT15=
EXTT16=
EXTT17=
EXTT18=
EXTT19=
PLAYORDER=
